<?xml version="1.0" standalone="no"?>
<!DOCTYPE svg PUBLIC "-//W3C//DTD SVG 20010904//EN"
 "http://www.w3.org/TR/2001/REC-SVG-20010904/DTD/svg10.dtd">
<svg version="1.0" xmlns="http://www.w3.org/2000/svg"
 width="162.000000pt" height="200.000000pt" viewBox="0 0 162.000000 200.000000"
 preserveAspectRatio="xMidYMid meet">

<g transform="translate(0.000000,200.000000) scale(0.100000,-0.100000)"
fill="#000000" stroke="none">
<path d="M739 1759 c-69 -10 -157 -40 -212 -73 -103 -60 -198 -174 -233 -278
-9 -29 -25 -64 -35 -77 -27 -34 -27 -158 -1 -192 31 -39 44 -89 29 -107 -8
-10 -14 -74 -18 -201 -4 -143 -9 -196 -23 -230 -9 -25 -20 -87 -23 -142 -6
-92 -5 -97 16 -108 20 -11 21 -10 21 33 l0 45 43 3 c56 4 59 32 5 36 -44 4
-52 22 -9 22 35 0 56 21 39 38 -7 7 -25 12 -40 12 -26 0 -28 2 -22 28 13 54
53 118 103 165 80 75 87 76 174 33 175 -86 364 -86 535 1 l74 37 36 -20 c75
-40 148 -134 167 -216 6 -24 4 -27 -27 -30 -25 -2 -33 -8 -33 -23 0 -16 8 -21
38 -23 46 -4 39 -22 -9 -22 -27 0 -34 -4 -34 -20 0 -17 7 -20 40 -20 l40 0 0
-42 0 -41 21 19 c20 17 21 27 16 109 -3 57 -12 110 -26 145 -18 48 -21 76 -21
226 0 136 -3 174 -14 183 -12 11 -12 18 1 56 8 24 21 49 29 56 10 8 14 35 14
94 0 69 -3 85 -20 100 -11 10 -20 26 -20 35 0 10 -17 51 -37 91 -75 152 -227
264 -398 294 -89 16 -105 16 -186 4z m171 -39 c93 -15 215 -77 282 -145 56
-55 128 -176 128 -214 0 -33 -25 -24 -38 14 -18 49 -94 112 -161 133 -47 14
-98 17 -316 17 -250 0 -262 -1 -310 -23 -62 -28 -107 -71 -130 -123 -19 -41
-45 -53 -45 -20 0 10 16 50 35 89 65 130 203 233 356 267 79 17 116 18 199 5z
m210 -236 c112 -38 170 -131 170 -270 0 -100 -27 -169 -95 -243 -95 -102 -224
-154 -379 -153 -195 1 -364 98 -437 251 -19 40 -22 60 -20 150 2 82 7 113 23
145 63 126 127 146 453 142 195 -2 238 -5 285 -22z m-775 -391 c18 -75 123
-191 212 -236 163 -83 350 -85 510 -7 101 50 170 117 215 208 18 36 34 59 36
53 9 -26 -70 -163 -123 -216 -115 -114 -301 -173 -462 -146 -159 27 -309 136
-378 274 -19 38 -35 76 -35 83 0 25 18 15 25 -13z m-4 -130 c13 -21 42 -58 64
-82 l40 -44 -25 -16 c-14 -9 -44 -33 -67 -55 l-43 -39 0 137 c0 75 2 136 4
136 2 0 15 -17 27 -37z m998 -58 c1 -33 -1 -83 -5 -112 l-6 -51 -62 45 c-33
25 -63 47 -65 49 -2 2 18 27 43 55 26 29 54 66 63 83 14 28 17 29 23 11 4 -11
8 -47 9 -80z"/>
<path d="M453 343 c-8 -3 -13 -24 -13 -58 0 -44 3 -53 20 -58 18 -5 20 0 20
53 0 60 -5 71 -27 63z"/>
<path d="M1166 343 c-7 -7 -8 -113 -2 -113 2 0 11 3 20 6 21 8 23 99 2 107 -8
3 -17 3 -20 0z"/>
</g>
</svg>
